<svg width="41" height="41" viewBox="0 0 41 41" fill="none" xmlns="http://www.w3.org/2000/svg">
<path d="M8.19359 5.02251C8.14234 4.49719 7.70031 4.10001 7.175 4.10001C6.64969 4.10001 6.20766 4.49719 6.15 5.0161L5.24672 13.6902C5.16344 14.0745 5.125 14.4653 5.125 14.8561C5.125 17.7966 7.37359 20.2117 10.25 20.4744V34.85C10.25 35.9839 11.1661 36.9 12.3 36.9C13.4339 36.9 14.35 35.9839 14.35 34.85V20.4744C17.2264 20.2117 19.475 17.7966 19.475 14.8561C19.475 14.4653 19.4366 14.0745 19.3533 13.6902L18.4436 5.0161C18.3923 4.49719 17.9503 4.10001 17.425 4.10001C16.8997 4.10001 16.4577 4.49719 16.4064 5.02251L15.5352 13.703C15.4967 14.0681 15.1892 14.35 14.8241 14.35C14.4525 14.35 14.145 14.0681 14.1066 13.6966L13.3186 5.03532C13.2737 4.5036 12.8317 4.10001 12.3 4.10001C11.7683 4.10001 11.3263 4.5036 11.2814 5.03532L10.4934 13.6966C10.4614 14.0681 10.1475 14.35 9.77594 14.35C9.40438 14.35 9.09687 14.0681 9.06484 13.703L8.19359 5.02251ZM32.8 4.10001C31.775 4.10001 24.6 6.15001 24.6 15.375V22.55C24.6 24.8114 26.4386 26.65 28.7 26.65H30.75V34.85C30.75 35.9839 31.6661 36.9 32.8 36.9C33.9339 36.9 34.85 35.9839 34.85 34.85V6.15001C34.85 5.0161 33.9339 4.10001 32.8 4.10001Z" fill="#870000"/>
</svg>
